<?xml version="1.0" encoding="utf-8"?>
<!-- Generator: Adobe Illustrator 19.1.0, SVG Export Plug-In . SVG Version: 6.00 Build 0)  -->
<svg version="1.1" id="Layer_1" xmlns="http://www.w3.org/2000/svg" xmlns:xlink="http://www.w3.org/1999/xlink" x="0px" y="0px"
	 viewBox="416 142.7 237.3 507.3" style="enable-background:new 416 142.7 237.3 507.3;" xml:space="preserve">
<style type="text/css">
	.st0{fill:#89453C;}
	.st1{fill:none;stroke:#3D2563;stroke-width:4.895;stroke-linecap:round;stroke-linejoin:round;stroke-miterlimit:10;}
	.st2{fill:#009F61;}
	.st3{fill:#F1F1F2;}
	.st4{fill:#9F5C50;}
	.st5{fill:#FBC6B1;}
	.st6{fill:#CF8E82;}
	.st7{fill:#3C5089;}
	.st8{fill:#F492A9;}
	.st9{fill:#0E7E4D;}
	.st10{fill:none;}
	.st11{fill:none;stroke:#3D2563;stroke-width:4.803;stroke-linecap:round;stroke-linejoin:round;stroke-miterlimit:10;}
	.st12{fill:#D9D9DB;}
	.st13{fill:#FFFFFF;}
	.st14{fill:#ADACAD;}
	.st15{fill:none;stroke:#F6A4B3;stroke-width:4;stroke-miterlimit:10;}
</style>
<path id="XMLID_49_" class="st0" d="M647.9,420.3c-17.1-56.3-5.4-130.4-5.4-130.4L535,296.3L427.6,290c0,0,11.7,74.1-5.4,130.4
	c-9.9,32.5,24.6,77,110.8,77.9l0,0c0.5,0,0.9,0,1.4,0c0.2,0,0.4,0,0.6,0s0.4,0,0.6,0c0.5,0,0.9,0,1.4,0l0,0
	C623.2,497.3,657.7,452.8,647.9,420.3"/>
<path id="XMLID_48_" class="st1" d="M647.9,420.3c-17.1-56.3-5.4-130.4-5.4-130.4L535,296.3L427.6,290c0,0,11.7,74.1-5.4,130.4
	c-9.9,32.5,24.6,77,110.8,77.9l0,0c0.5,0,0.9,0,1.4,0c0.2,0,0.4,0,0.6,0s0.4,0,0.6,0c0.5,0,0.9,0,1.4,0l0,0
	C623.2,497.3,657.7,452.8,647.9,420.3z"/>
<path id="XMLID_47_" class="st2" d="M469.7,488.3c0-36.4,29.5-65.9,65.9-65.9c36.4,0,66,29.5,66,65.9s-29.5,40.5-66,40.5
	C499.2,528.7,469.7,524.7,469.7,488.3"/>
<polygon id="XMLID_46_" class="st2" points="601.6,594.7 469.7,594.7 476.7,561.7 469.7,488.3 601.6,488.3 594.5,561.7 "/>
<path id="XMLID_45_" class="st2" d="M442.9,486.7c0,0,16.3-62.7,77.3-62.7l-50.5,69.2L442.9,486.7z"/>
<path id="XMLID_44_" class="st2" d="M628.3,486.7c0,0-16.3-62.7-77.3-62.7l50.5,69.2L628.3,486.7z"/>
<path id="XMLID_43_" class="st3" d="M535.6,456.8l15.5,16c0,0,18-24.8,9.1-48.1l-3-0.7"/>
<path id="XMLID_42_" class="st3" d="M535.6,456.8l-15.5,16c0,0-17.9-24.8-9.1-48.1l3-0.7"/>
<path id="XMLID_41_" class="st1" d="M601.5,493.3l26.8-6.6c0,0-16.3-62.7-77.3-62.7l0.1,0.2c-5-1.2-10.2-1.9-15.5-1.9
	c-5.4,0-10.6,0.7-15.6,1.9l0.1-0.2c-61,0-77.3,62.7-77.3,62.7l26.8,6.6l7,52.5l-7,48.9h131.9l-7-48.9L601.5,493.3z"/>
<path id="XMLID_40_" class="st0" d="M423.2,259.9c0-62.1,50.3-112.4,112.4-112.4S648,197.8,648,259.9s-50.3,112.4-112.4,112.4
	S423.2,321.9,423.2,259.9"/>
<path id="XMLID_39_" class="st1" d="M423.2,259.9c0-62.1,50.3-112.4,112.4-112.4S648,197.8,648,259.9s-50.3,112.4-112.4,112.4
	S423.2,321.9,423.2,259.9z"/>
<path id="XMLID_38_" class="st4" d="M643.3,234.1c0.3-1.3,0.5-2.5,0.7-3.8c-13-47.7-56.6-82.7-108.3-82.7c-0.2,0-0.3,0-0.5,0
	c-51.3,0.2-94.4,34.7-107.7,81.8c0.2,1.6,0.5,3.2,0.8,4.7c8-36,53.1-63.7,107.5-63.7S635.3,198,643.3,234.1"/>
<path id="XMLID_37_" class="st1" d="M423.2,259.9c0-62.1,50.3-112.4,112.4-112.4S648,197.8,648,259.9s-50.3,112.4-112.4,112.4
	S423.2,321.9,423.2,259.9z"/>
<path id="XMLID_36_" class="st5" d="M515.5,354.4v80.4l0,0c0,11.1,9,20.1,20.1,20.1c11.1,0,20.1-9,20.1-20.1v-80.4H515.5
	L515.5,354.4z"/>
<path id="XMLID_35_" class="st1" d="M515.5,354.4v80.4l0,0c0,11.1,9,20.1,20.1,20.1c11.1,0,20.1-9,20.1-20.1v-80.4H515.5
	L515.5,354.4z"/>
<path id="XMLID_34_" class="st6" d="M517.9,423.7c5.7,1.2,11.6,1.8,17.7,1.8c6.1,0,12-0.6,17.7-1.8v-26.5h-35.4V423.7L517.9,423.7z"
	/>
<path id="XMLID_33_" class="st5" d="M626.8,287.1c-0.1,0-0.2,0-0.4,0v-41.6c-2.9-2.5-5.7-5.1-8.9-7.3c-5.9-4.2-11.4-7.5-15.5-12.7
	H483.8l0,0c-12.1,10.8-23.5,22.4-39,27.6v34c-0.1,0-0.3,0-0.4,0c-13,0-23.6,10.6-23.6,23.6s10.6,23.6,23.6,23.6c0.7,0,1.4,0,2.1-0.1
	c8.3,41.6,45,73,89.1,73c44.1,0,80.8-31.4,89.1-73c0.7,0.1,1.4,0.1,2.1,0.1c13,0,23.6-10.6,23.6-23.6S639.9,287.1,626.8,287.1"/>
<path id="XMLID_32_" class="st1" d="M626.8,287.1c-0.1,0-0.2,0-0.4,0v-41.6c-2.9-2.5-5.7-5.1-8.9-7.3c-5.9-4.2-11.4-7.5-15.5-12.7
	H483.8l0,0c-12.1,10.8-23.5,22.4-39,27.6v34c-0.1,0-0.3,0-0.4,0c-13,0-23.6,10.6-23.6,23.6s10.6,23.6,23.6,23.6c0.7,0,1.4,0,2.1-0.1
	c8.3,41.6,45,73,89.1,73c44.1,0,80.8-31.4,89.1-73c0.7,0.1,1.4,0.1,2.1,0.1c13,0,23.6-10.6,23.6-23.6S639.9,287.1,626.8,287.1z"/>
<path id="XMLID_31_" class="st7" d="M487,307.1c0-5.6,4.5-10.1,10.1-10.1s10.1,4.5,10.1,10.1s-4.5,10.2-10.1,10.2
	C491.5,317.3,487,312.8,487,307.1"/>
<path id="XMLID_30_" class="st7" d="M564.2,307.1c0-5.6,4.5-10.1,10.1-10.1c5.6,0,10.1,4.5,10.1,10.1s-4.5,10.2-10.1,10.2
	C568.7,317.3,564.2,312.8,564.2,307.1"/>
<path id="XMLID_29_" class="st0" d="M473.5,222c-8.6,11.6-21.2,20.8-34.1,26.3l3.2,38.8c0,0,21.5-55.2,82.8-29.2
	c44.7,18.9,70.4-35.9,70.4-35.9S473.5,222,473.5,222z"/>
<path id="XMLID_28_" class="st1" d="M557.2,226.9c-13.5,32.1-57.7,23.8-57.7,23.8"/>
<path id="XMLID_27_" class="st0" d="M604.8,221.3c-1.3-0.8-2.2-1.8-2.7-3l-13.2-1.6c0,0,10.3,47,41.1,55.9l2-29.6
	C623.6,235.1,614.7,227.6,604.8,221.3"/>
<path id="XMLID_23_" class="st1" d="M442.7,287.2c0,0,23.8-51.6,72.9-32.6c48.7,18.9,69-8.6,78-27.7c0,0,8.8,36.1,36.5,45.8"/>
<path id="XMLID_22_" class="st8" d="M524.3,326.7l3-26c0.5-4.6,4.7-7.8,9.2-7.3c3.9,0.5,6.9,3.6,7.3,7.3l3,26
	c0.7,6.2-3.7,11.8-9.9,12.6c-6.2,0.7-11.9-3.7-12.6-10C524.2,328.4,524.3,327.5,524.3,326.7"/>
<path id="XMLID_21_" class="st5" d="M647.8,566.6L647.8,566.6v-0.2c-0.1-0.3-0.2-0.7-0.2-1l-19.3-78.7l-26.7,6.5l16.3,66.5l2.4,9.6
	l0.4,1.7c0.1,0.6,0.2,1.2,0.4,1.7l0.1,0.2l0,0c1.8,5.6,7,9.6,13.1,9.6c7.6,0,13.8-6.2,13.8-13.8C648,568.1,647.9,567.3,647.8,566.6"
	/>
<path id="XMLID_20_" class="st1" d="M647.8,566.6L647.8,566.6v-0.2c-0.1-0.3-0.2-0.7-0.2-1l-19.3-78.7l-26.7,6.5l16.3,66.5l2.4,9.6
	l0.4,1.7c0.1,0.6,0.2,1.2,0.4,1.7l0.1,0.2l0,0c1.8,5.6,7,9.6,13.1,9.6c7.6,0,13.8-6.2,13.8-13.8C648,568.1,647.9,567.3,647.8,566.6z
	"/>
<path id="XMLID_19_" class="st5" d="M423.5,566.6L423.5,566.6v-0.2c0.1-0.3,0.1-0.7,0.2-1l19.3-78.7l26.7,6.5l-16.3,66.5l-2.4,9.6
	l-0.4,1.7c-0.1,0.6-0.2,1.2-0.4,1.7l-0.1,0.2l0,0c-1.8,5.6-7,9.6-13.1,9.6c-7.6,0-13.8-6.2-13.8-13.8
	C423.2,568.1,423.3,567.3,423.5,566.6"/>
<path id="XMLID_18_" class="st1" d="M423.5,566.6L423.5,566.6v-0.2c0.1-0.3,0.1-0.7,0.2-1l19.3-78.7l26.7,6.5l-16.3,66.5l-2.4,9.6
	l-0.4,1.7c-0.1,0.6-0.2,1.2-0.4,1.7l-0.1,0.2l0,0c-1.8,5.6-7,9.6-13.1,9.6c-7.6,0-13.8-6.2-13.8-13.8
	C423.2,568.1,423.3,567.3,423.5,566.6z"/>
<polygon id="XMLID_17_" class="st7" points="594.3,646.6 477,646.6 469.7,594.7 601.6,594.7 "/>
<polygon id="XMLID_16_" class="st1" points="594.3,646.6 477,646.6 469.7,594.7 601.6,594.7 "/>
<polygon id="XMLID_15_" class="st1" points="594.3,646.6 477,646.6 469.7,594.7 601.6,594.7 "/>
<path id="XMLID_14_" class="st9" d="M582.7,504.4h-8.2h-74.6h-11.4c0,4.5,3.7,8.2,8.2,8.2h3.2h74.6
	C579,512.6,582.7,508.9,582.7,504.4"/>
<line id="XMLID_13_" class="st10" x1="626.5" y1="279.8" x2="626.5" y2="304.6"/>
<line id="XMLID_12_" class="st1" x1="626.5" y1="279.8" x2="626.5" y2="304.6"/>
<line id="XMLID_11_" class="st10" x1="445" y1="282.8" x2="445" y2="304.6"/>
<line id="XMLID_10_" class="st1" x1="445" y1="282.8" x2="445" y2="304.6"/>
<path id="XMLID_9_" class="st5" d="M644.4,559.5l-49.2-72.8l-6.5-9.5l-1-1.4c-0.3-0.5-0.7-1-1-1.5l-0.1-0.2l0,0
	c-3.6-4.6-9.9-6.6-15.6-4.4c-7.2,2.7-10.8,10.6-8.1,17.8c0.3,0.7,0.6,1.4,1,2.1l0,0l0.1,0.1c0.2,0.3,0.4,0.6,0.6,0.8l57.3,84.5
	c2.3,4.5,7,7.6,12.4,7.6c7.7,0,13.9-6.2,13.9-13.9C648,565.2,646.7,562,644.4,559.5"/>
<path id="XMLID_8_" class="st11" d="M644.4,559.5l-49.2-72.8l-6.5-9.5l-1-1.4c-0.3-0.5-0.7-1-1-1.5l-0.1-0.2l0,0
	c-3.6-4.6-9.9-6.6-15.6-4.4c-7.2,2.7-10.8,10.6-8.1,17.8c0.3,0.7,0.6,1.4,1,2.1l0,0l0.1,0.1c0.2,0.3,0.4,0.6,0.6,0.8l57.3,84.5
	c2.3,4.5,7,7.6,12.4,7.6c7.7,0,13.9-6.2,13.9-13.9C648,565.2,646.7,562,644.4,559.5z"/>
<path id="XMLID_7_" class="st12" d="M585.2,546.6c0,6.2-5,11.2-11.2,11.2h-76.7c-6.2,0-11.2-5-11.2-11.2V435.3
	c0-6.2,5-11.2,11.2-11.2H574c6.2,0,11.2,5,11.2,11.2V546.6z"/>
<path id="XMLID_6_" class="st13" d="M574,424.2h-76.7c-6.2,0-11.2,5-11.2,11.2v7.4c0-6.2,5-11.2,11.2-11.2H574
	c6.2,0,11.2,5,11.2,11.2v-7.4C585.2,429.2,580.2,424.2,574,424.2"/>
<path id="XMLID_5_" class="st14" d="M545,479.6c-0.5-0.2-1.1-0.2-1.7-0.2c-2.6,0-5.2-0.1-7.7-0.1c-2.6,0-5.1,0.1-7.7,0.1
	c-0.6,0-1.2,0-1.7,0.3c-0.7,0.2-0.9,0.5-0.9,1.2c0,4.4,0,8.9,0,13.3c0,1.1,0.2,2.2,0.6,3.2s1,1.7,2,2.3c2.3,1.3,4.8,2.2,7.4,3
	c0.2,0.1,0.5,0.1,0.7,0c0.7-0.2,1.3-0.4,1.9-0.6c1.9-0.7,3.7-1.4,5.4-2.4c0.9-0.5,1.5-1.2,1.9-2.1c0.5-1,0.7-2.1,0.7-3.3v-13.4
	C545.9,480.1,545.7,479.9,545,479.6"/>
<path id="XMLID_4_" class="st1" d="M585.2,546.6c0,6.2-5,11.2-11.2,11.2h-76.7c-6.2,0-11.2-5-11.2-11.2V435.3
	c0-6.2,5-11.2,11.2-11.2H574c6.2,0,11.2,5,11.2,11.2V546.6z"/>
<path id="XMLID_3_" class="st5" d="M426.8,559.5l49.2-72.8c0,0,1.9-16.6,10-20.5v7.9l0,0c3.6-4.6,8.5-6.6,14.3-4.4
	c7.2,2.7,10.8,10.6,8.1,17.8c-0.3,0.7-0.6,1.4-1,2.1l0,0l-0.1,0.1c-0.2,0.3-0.4,0.6-0.6,0.8L449.4,575c-2.3,4.5-7,7.6-12.4,7.6
	c-7.7,0-13.9-6.2-13.9-13.9C423.2,565.2,424.6,562,426.8,559.5"/>
<path id="XMLID_2_" class="st11" d="M426.8,559.5l49.2-72.8c0,0,1.9-16.6,10-20.5v7.9l0,0c3.6-4.6,8.5-6.6,14.3-4.4
	c7.2,2.7,10.8,10.6,8.1,17.8c-0.3,0.7-0.6,1.4-1,2.1l0,0l-0.1,0.1c-0.2,0.3-0.4,0.6-0.6,0.8L449.4,575c-2.3,4.5-7,7.6-12.4,7.6
	c-7.7,0-13.9-6.2-13.9-13.9C423.2,565.2,424.6,562,426.8,559.5z"/>
<path id="XMLID_1_" class="st15" d="M519.1,369.6c15.3-17.8,34.7-13.1,34.7-13.1"/>
</svg>
